<svg xmlns="http://www.w3.org/2000/svg" xmlns:xlink="http://www.w3.org/1999/xlink" width="500" zoomAndPan="magnify" viewBox="0 0 375 374.999991" height="500" preserveAspectRatio="xMidYMid meet" version="1.0"><defs><g/><clipPath id="79a705f50b"><path d="M 11 13.660156 L 363 13.660156 L 363 361.660156 L 11 361.660156 Z M 11 13.660156 " clip-rule="nonzero"/></clipPath><clipPath id="0fcaf90855"><path d="M 146.5625 249.179688 L 156.421875 249.179688 L 149.445312 256.144531 L 173.246094 279.945312 L 180.210938 272.96875 L 180.210938 282.828125 L 213.855469 282.828125 L 213.855469 272.96875 L 220.824219 279.945312 L 244.625 256.144531 L 237.648438 249.179688 L 247.5 249.179688 L 247.5 215.535156 L 237.644531 215.535156 L 244.617188 208.570312 L 220.820312 184.773438 L 213.855469 191.742188 L 213.855469 181.890625 L 180.210938 181.890625 L 180.210938 191.746094 L 173.238281 184.773438 L 149.441406 208.570312 L 156.417969 215.535156 L 146.5625 215.535156 Z M 157.78125 226.667969 C 161.765625 226.183594 165.214844 223.605469 166.78125 219.824219 C 168.34375 216.039062 167.734375 211.785156 165.253906 208.621094 L 173.300781 200.574219 C 176.464844 203.058594 180.730469 203.664062 184.503906 202.097656 C 188.285156 200.535156 190.863281 197.085938 191.347656 193.097656 L 202.726562 193.097656 C 203.207031 197.09375 205.785156 200.535156 209.566406 202.097656 C 213.355469 203.664062 217.613281 203.054688 220.769531 200.574219 L 228.816406 208.621094 C 226.339844 211.777344 225.726562 216.039062 227.292969 219.824219 C 228.855469 223.605469 232.304688 226.183594 236.292969 226.667969 L 236.292969 238.042969 C 232.304688 238.527344 228.855469 241.105469 227.292969 244.886719 C 225.726562 248.671875 226.339844 252.925781 228.816406 256.089844 L 220.769531 264.136719 C 217.613281 261.65625 213.351562 261.035156 209.566406 262.613281 C 205.78125 264.175781 203.203125 267.625 202.726562 271.613281 L 191.347656 271.613281 C 190.871094 267.625 188.289062 264.175781 184.503906 262.613281 C 180.730469 261.042969 176.464844 261.65625 173.300781 264.136719 L 165.253906 256.089844 C 167.734375 252.933594 168.34375 248.671875 166.78125 244.886719 C 165.214844 241.105469 161.765625 238.527344 157.78125 238.042969 Z M 197.03125 260.394531 C 212.492188 260.394531 225.070312 247.820312 225.070312 232.359375 C 225.070312 216.898438 212.492188 204.320312 197.03125 204.320312 C 181.574219 204.320312 168.996094 216.898438 168.996094 232.359375 C 168.996094 247.820312 181.574219 260.394531 197.03125 260.394531 Z M 197.03125 215.535156 C 206.308594 215.535156 213.855469 223.082031 213.855469 232.359375 C 213.855469 241.632812 206.308594 249.179688 197.03125 249.179688 C 187.757812 249.179688 180.210938 241.632812 180.210938 232.359375 C 180.210938 223.082031 187.757812 215.535156 197.03125 215.535156 Z M 202.675781 237.445312 L 191.457031 237.445312 L 191.457031 226.230469 L 202.675781 226.230469 Z M 90.488281 249.179688 L 56.84375 249.179688 L 56.84375 237.964844 L 90.488281 237.964844 Z M 90.488281 271.613281 L 56.84375 271.613281 L 56.84375 260.394531 L 90.488281 260.394531 Z M 90.488281 294.042969 L 56.84375 294.042969 L 56.84375 282.828125 L 90.488281 282.828125 Z M 90.488281 316.472656 L 56.84375 316.472656 L 56.84375 305.257812 L 90.488281 305.257812 Z M 281.148438 97.777344 C 281.148438 100.871094 278.636719 103.382812 275.539062 103.382812 C 272.445312 103.382812 269.933594 100.871094 269.933594 97.777344 C 269.933594 94.679688 272.445312 92.167969 275.539062 92.167969 C 278.636719 92.167969 281.148438 94.679688 281.148438 97.777344 Z M 314.792969 97.777344 C 314.792969 100.871094 312.28125 103.382812 309.183594 103.382812 C 306.089844 103.382812 303.578125 100.871094 303.578125 97.777344 C 303.578125 94.679688 306.089844 92.167969 309.183594 92.167969 C 312.28125 92.167969 314.792969 94.679688 314.792969 97.777344 Z M 299.605469 110.632812 L 307.542969 118.5625 C 302.871094 123.238281 296.65625 125.8125 290.039062 125.8125 L 281.148438 125.8125 L 281.148438 114.597656 L 290.039062 114.597656 C 293.65625 114.597656 297.054688 113.191406 299.605469 110.632812 Z M 314.792969 294.042969 L 282.15625 294.042969 C 303.039062 271.949219 314.792969 242.777344 314.792969 211.914062 C 314.792969 205.605469 314.289062 199.308594 313.3125 193.105469 L 344.066406 193.105469 L 341.648438 181.03125 C 338.679688 166.183594 327.820312 154.027344 313.574219 149.292969 L 311.738281 143.785156 C 323.5 138.117188 332.410156 127.484375 335.742188 114.605469 L 342.832031 114.605469 C 352.105469 114.605469 359.652344 107.054688 359.652344 97.78125 C 359.652344 90.480469 354.949219 84.3125 348.4375 81.988281 L 348.4375 69.738281 C 348.4375 38.816406 323.28125 13.660156 292.363281 13.660156 C 261.441406 13.660156 236.285156 38.816406 236.285156 69.738281 L 236.285156 81.984375 C 230.308594 84.117188 225.933594 89.503906 225.25 96.027344 C 215.429688 93.472656 205.308594 92.167969 195.046875 92.167969 C 169.8125 92.167969 144.796875 100.507812 124.605469 115.652344 L 113.445312 124.019531 L 98.664062 109.238281 L 83.304688 170.675781 L 154.492188 170.675781 L 138.539062 154.722656 L 144.808594 150.542969 C 158.078125 141.699219 173.515625 137.027344 189.453125 137.027344 C 213.007812 137.027344 234.84375 147.183594 250.160156 164.871094 C 246.746094 169.636719 244.261719 175.105469 243.078125 181.03125 L 240.660156 193.105469 L 266.085938 193.105469 C 268.585938 200.96875 269.933594 209.148438 269.933594 217.507812 C 269.933594 259.707031 235.597656 294.042969 193.398438 294.042969 L 135.347656 294.042969 L 135.347656 209.929688 C 135.347656 200.652344 127.800781 193.105469 118.527344 193.105469 L 101.703125 193.105469 C 101.703125 186.917969 96.671875 181.890625 90.488281 181.890625 L 56.84375 181.890625 C 50.65625 181.890625 45.628906 186.917969 45.628906 193.105469 L 28.804688 193.105469 C 19.53125 193.105469 11.980469 200.652344 11.980469 209.929688 L 11.980469 344.511719 C 11.980469 353.785156 19.53125 361.332031 28.804688 361.332031 L 118.527344 361.332031 C 127.800781 361.332031 135.347656 353.785156 135.347656 344.511719 L 135.347656 338.902344 L 314.792969 338.902344 L 314.792969 356.484375 L 362.804688 316.472656 L 314.792969 276.460938 Z M 291.132812 170.675781 L 293.589844 170.675781 L 296.394531 181.890625 L 288.332031 181.890625 Z M 330.347656 181.890625 L 307.953125 181.890625 L 304.175781 166.789062 L 310.726562 160.238281 C 320.40625 163.714844 327.871094 171.847656 330.347656 181.890625 Z M 302.769531 152.335938 L 295.648438 159.460938 L 289.078125 159.460938 L 281.953125 152.335938 L 283.609375 147.375 C 286.441406 147.9375 289.367188 148.242188 292.363281 148.242188 C 295.355469 148.242188 298.277344 147.9375 301.117188 147.375 Z M 326.007812 103.382812 C 326.007812 121.9375 310.917969 137.027344 292.363281 137.027344 C 273.808594 137.027344 258.714844 121.9375 258.714844 103.382812 L 258.714844 82.9375 C 258.714844 80.632812 260.101562 78.585938 262.238281 77.726562 L 274.789062 72.710938 C 276.917969 74.554688 279.621094 75.769531 282.632812 76.078125 L 320.957031 79.914062 C 323.832031 80.203125 326.003906 82.601562 326.003906 85.488281 L 326.003906 103.382812 Z M 342.832031 103.382812 L 337.222656 103.382812 L 337.222656 92.167969 L 342.832031 92.167969 C 345.921875 92.167969 348.4375 94.679688 348.4375 97.777344 C 348.4375 100.871094 345.921875 103.382812 342.832031 103.382812 Z M 292.363281 24.875 C 317.097656 24.875 337.222656 45.003906 337.222656 69.738281 L 337.222656 80.953125 L 336.535156 80.953125 C 334.710938 74.429688 329.136719 69.460938 322.078125 68.757812 L 283.761719 64.921875 C 282.269531 64.773438 281.148438 63.542969 281.148438 62.042969 C 281.148438 61.269531 281.449219 60.542969 281.992188 59.996094 L 285.113281 56.878906 L 277.183594 48.949219 L 274.066406 52.066406 C 271.402344 54.726562 269.933594 58.277344 269.933594 62.042969 C 269.933594 62.21875 269.933594 62.398438 269.941406 62.578125 L 258.078125 67.320312 C 252.277344 69.640625 248.363281 74.867188 247.652344 80.957031 L 247.5 80.957031 L 247.5 69.742188 C 247.5 45.003906 267.628906 24.875 292.363281 24.875 Z M 241.894531 92.167969 L 247.5 92.167969 L 247.5 103.382812 L 241.894531 103.382812 C 238.804688 103.382812 236.285156 100.871094 236.285156 97.777344 C 236.285156 94.679688 238.804688 92.167969 241.894531 92.167969 Z M 189.453125 125.8125 C 171.292969 125.8125 153.703125 131.136719 138.589844 141.210938 L 120.941406 152.984375 L 127.421875 159.460938 L 97.671875 159.460938 L 104.742188 131.175781 L 112.390625 138.824219 L 131.328125 124.621094 C 149.59375 110.925781 172.21875 103.382812 195.046875 103.382812 C 206.835938 103.382812 218.398438 105.308594 229.460938 109.007812 C 232.539062 112.417969 236.949219 114.597656 241.894531 114.597656 L 248.976562 114.597656 C 252.3125 127.480469 261.21875 138.109375 272.980469 143.78125 L 271.144531 149.292969 C 266.242188 150.917969 261.785156 153.480469 257.863281 156.679688 C 240.457031 137.058594 215.90625 125.8125 189.453125 125.8125 Z M 273.992188 160.234375 L 280.542969 166.78125 L 276.765625 181.890625 L 254.371094 181.890625 C 256.855469 171.847656 264.320312 163.714844 273.992188 160.234375 Z M 101.703125 226.75 L 101.703125 327.6875 L 45.628906 327.6875 L 45.628906 226.75 Z M 90.488281 193.105469 L 90.488281 215.535156 L 56.84375 215.535156 L 56.84375 193.105469 Z M 124.132812 344.511719 C 124.132812 347.605469 121.617188 350.117188 118.527344 350.117188 L 28.804688 350.117188 C 25.714844 350.117188 23.195312 347.605469 23.195312 344.511719 L 23.195312 209.929688 C 23.195312 206.832031 25.714844 204.320312 28.804688 204.320312 L 45.628906 204.320312 L 45.628906 215.535156 L 34.414062 215.535156 L 34.414062 338.902344 L 112.917969 338.902344 L 112.917969 215.535156 L 101.703125 215.535156 L 101.703125 204.320312 L 118.527344 204.320312 C 121.617188 204.320312 124.132812 206.832031 124.132812 209.929688 Z M 326.007812 300.40625 L 345.285156 316.472656 L 326.007812 332.539062 L 326.007812 327.6875 L 135.347656 327.6875 L 135.347656 305.257812 L 193.398438 305.257812 C 241.78125 305.257812 281.148438 265.890625 281.148438 217.507812 C 281.148438 209.199219 280.035156 201.023438 277.855469 193.105469 L 301.804688 193.105469 C 302.882812 199.300781 303.578125 205.585938 303.578125 211.914062 C 303.578125 244.601562 289.070312 275.21875 263.769531 295.910156 L 243.945312 312.125 L 251.050781 320.8125 L 270.070312 305.257812 L 326.007812 305.257812 Z M 326.007812 300.40625 " clip-rule="nonzero"/></clipPath><linearGradient x1="31.281" gradientTransform="matrix(5.607611, 0, 0, 5.607611, 11.98177, 13.66147)" y1="62.000001" x2="31.281" gradientUnits="userSpaceOnUse" y2="-0.000000472434" id="00f60faff8"><stop stop-opacity="1" stop-color="rgb(0%, 59.199524%, 69.799805%)" offset="0"/><stop stop-opacity="1" stop-color="rgb(0.218201%, 59.254456%, 69.775391%)" offset="0.00390625"/><stop stop-opacity="1" stop-color="rgb(0.437927%, 59.309387%, 69.752502%)" offset="0.0078125"/><stop stop-opacity="1" stop-color="rgb(0.656128%, 59.364319%, 69.729614%)" offset="0.0117188"/><stop stop-opacity="1" stop-color="rgb(0.875854%, 59.41925%, 69.706726%)" offset="0.015625"/><stop stop-opacity="1" stop-color="rgb(1.094055%, 59.474182%, 69.683838%)" offset="0.0195312"/><stop stop-opacity="1" stop-color="rgb(1.313782%, 59.529114%, 69.66095%)" offset="0.0234375"/><stop stop-opacity="1" stop-color="rgb(1.531982%, 59.584045%, 69.638062%)" offset="0.0273438"/><stop stop-opacity="1" stop-color="rgb(1.751709%, 59.640503%, 69.615173%)" offset="0.03125"/><stop stop-opacity="1" stop-color="rgb(1.971436%, 59.695435%, 69.592285%)" offset="0.0351562"/><stop stop-opacity="1" stop-color="rgb(2.191162%, 59.750366%, 69.569397%)" offset="0.0390625"/><stop stop-opacity="1" stop-color="rgb(2.409363%, 59.805298%, 69.544983%)" offset="0.0429687"/><stop stop-opacity="1" stop-color="rgb(2.629089%, 59.860229%, 69.522095%)" offset="0.046875"/><stop stop-opacity="1" stop-color="rgb(2.84729%, 59.915161%, 69.499207%)" offset="0.0507812"/><stop stop-opacity="1" stop-color="rgb(3.067017%, 59.970093%, 69.476318%)" offset="0.0546875"/><stop stop-opacity="1" stop-color="rgb(3.285217%, 60.025024%, 69.45343%)" offset="0.0585938"/><stop stop-opacity="1" stop-color="rgb(3.504944%, 60.079956%, 69.430542%)" offset="0.0625"/><stop stop-opacity="1" stop-color="rgb(3.72467%, 60.134888%, 69.407654%)" offset="0.0664062"/><stop stop-opacity="1" stop-color="rgb(3.944397%, 60.191345%, 69.384766%)" offset="0.0703125"/><stop stop-opacity="1" stop-color="rgb(4.162598%, 60.246277%, 69.361877%)" offset="0.0742188"/><stop stop-opacity="1" stop-color="rgb(4.382324%, 60.301208%, 69.338989%)" offset="0.078125"/><stop stop-opacity="1" stop-color="rgb(4.600525%, 60.35614%, 69.314575%)" offset="0.0820312"/><stop stop-opacity="1" stop-color="rgb(4.820251%, 60.411072%, 69.291687%)" offset="0.0859375"/><stop stop-opacity="1" stop-color="rgb(5.038452%, 60.466003%, 69.268799%)" offset="0.0898437"/><stop stop-opacity="1" stop-color="rgb(5.258179%, 60.520935%, 69.245911%)" offset="0.09375"/><stop stop-opacity="1" stop-color="rgb(5.477905%, 60.575867%, 69.223022%)" offset="0.0976562"/><stop stop-opacity="1" stop-color="rgb(5.697632%, 60.630798%, 69.200134%)" offset="0.101562"/><stop stop-opacity="1" stop-color="rgb(5.915833%, 60.68573%, 69.177246%)" offset="0.105469"/><stop stop-opacity="1" stop-color="rgb(6.135559%, 60.740662%, 69.154358%)" offset="0.109375"/><stop stop-opacity="1" stop-color="rgb(6.35376%, 60.795593%, 69.13147%)" offset="0.113281"/><stop stop-opacity="1" stop-color="rgb(6.573486%, 60.852051%, 69.108582%)" offset="0.117188"/><stop stop-opacity="1" stop-color="rgb(6.791687%, 60.906982%, 69.084167%)" offset="0.121094"/><stop stop-opacity="1" stop-color="rgb(7.011414%, 60.961914%, 69.061279%)" offset="0.125"/><stop stop-opacity="1" stop-color="rgb(7.229614%, 61.016846%, 69.038391%)" offset="0.128906"/><stop stop-opacity="1" stop-color="rgb(7.449341%, 61.071777%, 69.015503%)" offset="0.132813"/><stop stop-opacity="1" stop-color="rgb(7.669067%, 61.126709%, 68.992615%)" offset="0.136719"/><stop stop-opacity="1" stop-color="rgb(7.888794%, 61.181641%, 68.969727%)" offset="0.140625"/><stop stop-opacity="1" stop-color="rgb(8.106995%, 61.236572%, 68.946838%)" offset="0.144531"/><stop stop-opacity="1" stop-color="rgb(8.326721%, 61.291504%, 68.92395%)" offset="0.148438"/><stop stop-opacity="1" stop-color="rgb(8.544922%, 61.346436%, 68.899536%)" offset="0.152344"/><stop stop-opacity="1" stop-color="rgb(8.764648%, 61.402893%, 68.876648%)" offset="0.15625"/><stop stop-opacity="1" stop-color="rgb(8.982849%, 61.457825%, 68.85376%)" offset="0.160156"/><stop stop-opacity="1" stop-color="rgb(9.202576%, 61.512756%, 68.830872%)" offset="0.164063"/><stop stop-opacity="1" stop-color="rgb(9.422302%, 61.567688%, 68.807983%)" offset="0.167969"/><stop stop-opacity="1" stop-color="rgb(9.642029%, 61.62262%, 68.785095%)" offset="0.171875"/><stop stop-opacity="1" stop-color="rgb(9.860229%, 61.677551%, 68.762207%)" offset="0.175781"/><stop stop-opacity="1" stop-color="rgb(10.079956%, 61.732483%, 68.739319%)" offset="0.179688"/><stop stop-opacity="1" stop-color="rgb(10.298157%, 61.787415%, 68.716431%)" offset="0.183594"/><stop stop-opacity="1" stop-color="rgb(10.517883%, 61.842346%, 68.693542%)" offset="0.1875"/><stop stop-opacity="1" stop-color="rgb(10.736084%, 61.897278%, 68.669128%)" offset="0.191406"/><stop stop-opacity="1" stop-color="rgb(10.955811%, 61.953735%, 68.64624%)" offset="0.195313"/><stop stop-opacity="1" stop-color="rgb(11.175537%, 62.008667%, 68.623352%)" offset="0.199219"/><stop stop-opacity="1" stop-color="rgb(11.395264%, 62.063599%, 68.600464%)" offset="0.203125"/><stop stop-opacity="1" stop-color="rgb(11.613464%, 62.11853%, 68.577576%)" offset="0.207031"/><stop stop-opacity="1" stop-color="rgb(11.833191%, 62.173462%, 68.554688%)" offset="0.210938"/><stop stop-opacity="1" stop-color="rgb(12.051392%, 62.228394%, 68.531799%)" offset="0.214844"/><stop stop-opacity="1" stop-color="rgb(12.271118%, 62.283325%, 68.508911%)" offset="0.21875"/><stop stop-opacity="1" stop-color="rgb(12.489319%, 62.338257%, 68.486023%)" offset="0.222656"/><stop stop-opacity="1" stop-color="rgb(12.709045%, 62.393188%, 68.463135%)" offset="0.226562"/><stop stop-opacity="1" stop-color="rgb(12.927246%, 62.44812%, 68.438721%)" offset="0.230469"/><stop stop-opacity="1" stop-color="rgb(13.146973%, 62.504578%, 68.415833%)" offset="0.234375"/><stop stop-opacity="1" stop-color="rgb(13.366699%, 62.559509%, 68.392944%)" offset="0.238281"/><stop stop-opacity="1" stop-color="rgb(13.586426%, 62.614441%, 68.370056%)" offset="0.242188"/><stop stop-opacity="1" stop-color="rgb(13.804626%, 62.669373%, 68.347168%)" offset="0.246094"/><stop stop-opacity="1" stop-color="rgb(14.024353%, 62.724304%, 68.32428%)" offset="0.25"/><stop stop-opacity="1" stop-color="rgb(14.242554%, 62.779236%, 68.301392%)" offset="0.253906"/><stop stop-opacity="1" stop-color="rgb(14.46228%, 62.834167%, 68.278503%)" offset="0.257812"/><stop stop-opacity="1" stop-color="rgb(14.680481%, 62.889099%, 68.255615%)" offset="0.261719"/><stop stop-opacity="1" stop-color="rgb(14.900208%, 62.944031%, 68.232727%)" offset="0.265625"/><stop stop-opacity="1" stop-color="rgb(15.119934%, 62.998962%, 68.208313%)" offset="0.269531"/><stop stop-opacity="1" stop-color="rgb(15.339661%, 63.05542%, 68.185425%)" offset="0.273438"/><stop stop-opacity="1" stop-color="rgb(15.557861%, 63.110352%, 68.162537%)" offset="0.277344"/><stop stop-opacity="1" stop-color="rgb(15.777588%, 63.165283%, 68.139648%)" offset="0.28125"/><stop stop-opacity="1" stop-color="rgb(15.995789%, 63.220215%, 68.11676%)" offset="0.285156"/><stop stop-opacity="1" stop-color="rgb(16.215515%, 63.275146%, 68.093872%)" offset="0.289062"/><stop stop-opacity="1" stop-color="rgb(16.433716%, 63.330078%, 68.070984%)" offset="0.292969"/><stop stop-opacity="1" stop-color="rgb(16.653442%, 63.38501%, 68.048096%)" offset="0.296875"/><stop stop-opacity="1" stop-color="rgb(16.873169%, 63.439941%, 68.025208%)" offset="0.300781"/><stop stop-opacity="1" stop-color="rgb(17.092896%, 63.494873%, 68.002319%)" offset="0.304687"/><stop stop-opacity="1" stop-color="rgb(17.311096%, 63.549805%, 67.977905%)" offset="0.308594"/><stop stop-opacity="1" stop-color="rgb(17.530823%, 63.604736%, 67.955017%)" offset="0.3125"/><stop stop-opacity="1" stop-color="rgb(17.749023%, 63.659668%, 67.932129%)" offset="0.316406"/><stop stop-opacity="1" stop-color="rgb(17.96875%, 63.716125%, 67.909241%)" offset="0.320312"/><stop stop-opacity="1" stop-color="rgb(18.186951%, 63.771057%, 67.886353%)" offset="0.324219"/><stop stop-opacity="1" stop-color="rgb(18.406677%, 63.825989%, 67.863464%)" offset="0.328125"/><stop stop-opacity="1" stop-color="rgb(18.624878%, 63.88092%, 67.840576%)" offset="0.332031"/><stop stop-opacity="1" stop-color="rgb(18.844604%, 63.935852%, 67.817688%)" offset="0.335937"/><stop stop-opacity="1" stop-color="rgb(19.064331%, 63.990784%, 67.793274%)" offset="0.339844"/><stop stop-opacity="1" stop-color="rgb(19.284058%, 64.045715%, 67.770386%)" offset="0.34375"/><stop stop-opacity="1" stop-color="rgb(19.502258%, 64.100647%, 67.747498%)" offset="0.347656"/><stop stop-opacity="1" stop-color="rgb(19.721985%, 64.155579%, 67.724609%)" offset="0.351562"/><stop stop-opacity="1" stop-color="rgb(19.940186%, 64.21051%, 67.701721%)" offset="0.355469"/><stop stop-opacity="1" stop-color="rgb(20.159912%, 64.266968%, 67.678833%)" offset="0.359375"/><stop stop-opacity="1" stop-color="rgb(20.378113%, 64.321899%, 67.655945%)" offset="0.363281"/><stop stop-opacity="1" stop-color="rgb(20.597839%, 64.376831%, 67.633057%)" offset="0.367187"/><stop stop-opacity="1" stop-color="rgb(20.817566%, 64.431763%, 67.610168%)" offset="0.371094"/><stop stop-opacity="1" stop-color="rgb(21.037292%, 64.486694%, 67.58728%)" offset="0.375"/><stop stop-opacity="1" stop-color="rgb(21.255493%, 64.541626%, 67.562866%)" offset="0.378906"/><stop stop-opacity="1" stop-color="rgb(21.47522%, 64.596558%, 67.539978%)" offset="0.382812"/><stop stop-opacity="1" stop-color="rgb(21.69342%, 64.651489%, 67.51709%)" offset="0.386719"/><stop stop-opacity="1" stop-color="rgb(21.913147%, 64.706421%, 67.494202%)" offset="0.390625"/><stop stop-opacity="1" stop-color="rgb(22.131348%, 64.761353%, 67.471313%)" offset="0.394531"/><stop stop-opacity="1" stop-color="rgb(22.351074%, 64.81781%, 67.448425%)" offset="0.398437"/><stop stop-opacity="1" stop-color="rgb(22.570801%, 64.872742%, 67.425537%)" offset="0.402344"/><stop stop-opacity="1" stop-color="rgb(22.790527%, 64.927673%, 67.402649%)" offset="0.40625"/><stop stop-opacity="1" stop-color="rgb(23.008728%, 64.982605%, 67.379761%)" offset="0.410156"/><stop stop-opacity="1" stop-color="rgb(23.228455%, 65.037537%, 67.356873%)" offset="0.414062"/><stop stop-opacity="1" stop-color="rgb(23.446655%, 65.092468%, 67.332458%)" offset="0.417969"/><stop stop-opacity="1" stop-color="rgb(23.666382%, 65.1474%, 67.30957%)" offset="0.421875"/><stop stop-opacity="1" stop-color="rgb(23.884583%, 65.202332%, 67.286682%)" offset="0.425781"/><stop stop-opacity="1" stop-color="rgb(24.104309%, 65.257263%, 67.263794%)" offset="0.429687"/><stop stop-opacity="1" stop-color="rgb(24.32251%, 65.312195%, 67.240906%)" offset="0.433594"/><stop stop-opacity="1" stop-color="rgb(24.542236%, 65.368652%, 67.218018%)" offset="0.4375"/><stop stop-opacity="1" stop-color="rgb(24.761963%, 65.423584%, 67.195129%)" offset="0.441406"/><stop stop-opacity="1" stop-color="rgb(24.981689%, 65.478516%, 67.172241%)" offset="0.445312"/><stop stop-opacity="1" stop-color="rgb(25.19989%, 65.533447%, 67.149353%)" offset="0.449219"/><stop stop-opacity="1" stop-color="rgb(25.419617%, 65.588379%, 67.126465%)" offset="0.453125"/><stop stop-opacity="1" stop-color="rgb(25.637817%, 65.643311%, 67.102051%)" offset="0.457031"/><stop stop-opacity="1" stop-color="rgb(25.857544%, 65.698242%, 67.079163%)" offset="0.460937"/><stop stop-opacity="1" stop-color="rgb(26.075745%, 65.753174%, 67.056274%)" offset="0.464844"/><stop stop-opacity="1" stop-color="rgb(26.295471%, 65.808105%, 67.033386%)" offset="0.46875"/><stop stop-opacity="1" stop-color="rgb(26.515198%, 65.863037%, 67.010498%)" offset="0.472656"/><stop stop-opacity="1" stop-color="rgb(26.734924%, 65.919495%, 66.98761%)" offset="0.476562"/><stop stop-opacity="1" stop-color="rgb(26.953125%, 65.974426%, 66.964722%)" offset="0.480469"/><stop stop-opacity="1" stop-color="rgb(27.172852%, 66.029358%, 66.941833%)" offset="0.484375"/><stop stop-opacity="1" stop-color="rgb(27.391052%, 66.08429%, 66.918945%)" offset="0.488281"/><stop stop-opacity="1" stop-color="rgb(27.610779%, 66.139221%, 66.896057%)" offset="0.492187"/><stop stop-opacity="1" stop-color="rgb(27.828979%, 66.194153%, 66.871643%)" offset="0.496094"/><stop stop-opacity="1" stop-color="rgb(28.048706%, 66.249084%, 66.848755%)" offset="0.5"/><stop stop-opacity="1" stop-color="rgb(28.268433%, 66.304016%, 66.825867%)" offset="0.503906"/><stop stop-opacity="1" stop-color="rgb(28.488159%, 66.358948%, 66.802979%)" offset="0.507813"/><stop stop-opacity="1" stop-color="rgb(28.70636%, 66.413879%, 66.78009%)" offset="0.511719"/><stop stop-opacity="1" stop-color="rgb(28.926086%, 66.468811%, 66.757202%)" offset="0.515625"/><stop stop-opacity="1" stop-color="rgb(29.144287%, 66.523743%, 66.734314%)" offset="0.519531"/><stop stop-opacity="1" stop-color="rgb(29.364014%, 66.5802%, 66.711426%)" offset="0.523438"/><stop stop-opacity="1" stop-color="rgb(29.582214%, 66.635132%, 66.687012%)" offset="0.527344"/><stop stop-opacity="1" stop-color="rgb(29.801941%, 66.690063%, 66.664124%)" offset="0.53125"/><stop stop-opacity="1" stop-color="rgb(30.021667%, 66.744995%, 66.641235%)" offset="0.535156"/><stop stop-opacity="1" stop-color="rgb(30.241394%, 66.799927%, 66.618347%)" offset="0.539062"/><stop stop-opacity="1" stop-color="rgb(30.459595%, 66.854858%, 66.595459%)" offset="0.542969"/><stop stop-opacity="1" stop-color="rgb(30.679321%, 66.90979%, 66.572571%)" offset="0.546875"/><stop stop-opacity="1" stop-color="rgb(30.897522%, 66.964722%, 66.549683%)" offset="0.550781"/><stop stop-opacity="1" stop-color="rgb(31.117249%, 67.019653%, 66.526794%)" offset="0.554688"/><stop stop-opacity="1" stop-color="rgb(31.335449%, 67.074585%, 66.503906%)" offset="0.558594"/><stop stop-opacity="1" stop-color="rgb(31.555176%, 67.131042%, 66.481018%)" offset="0.5625"/><stop stop-opacity="1" stop-color="rgb(31.773376%, 67.185974%, 66.456604%)" offset="0.566406"/><stop stop-opacity="1" stop-color="rgb(31.993103%, 67.240906%, 66.433716%)" offset="0.570312"/><stop stop-opacity="1" stop-color="rgb(32.21283%, 67.295837%, 66.410828%)" offset="0.574219"/><stop stop-opacity="1" stop-color="rgb(32.432556%, 67.350769%, 66.387939%)" offset="0.578125"/><stop stop-opacity="1" stop-color="rgb(32.650757%, 67.405701%, 66.365051%)" offset="0.582031"/><stop stop-opacity="1" stop-color="rgb(32.870483%, 67.460632%, 66.342163%)" offset="0.585937"/><stop stop-opacity="1" stop-color="rgb(33.088684%, 67.515564%, 66.319275%)" offset="0.589844"/><stop stop-opacity="1" stop-color="rgb(33.308411%, 67.570496%, 66.296387%)" offset="0.59375"/><stop stop-opacity="1" stop-color="rgb(33.526611%, 67.625427%, 66.273499%)" offset="0.597656"/><stop stop-opacity="1" stop-color="rgb(33.746338%, 67.681885%, 66.25061%)" offset="0.601562"/><stop stop-opacity="1" stop-color="rgb(33.966064%, 67.736816%, 66.226196%)" offset="0.605469"/><stop stop-opacity="1" stop-color="rgb(34.185791%, 67.791748%, 66.203308%)" offset="0.609375"/><stop stop-opacity="1" stop-color="rgb(34.403992%, 67.84668%, 66.18042%)" offset="0.613281"/><stop stop-opacity="1" stop-color="rgb(34.623718%, 67.901611%, 66.157532%)" offset="0.617188"/><stop stop-opacity="1" stop-color="rgb(34.841919%, 67.956543%, 66.134644%)" offset="0.621094"/><stop stop-opacity="1" stop-color="rgb(35.061646%, 68.011475%, 66.111755%)" offset="0.625"/><stop stop-opacity="1" stop-color="rgb(35.279846%, 68.066406%, 66.088867%)" offset="0.628906"/><stop stop-opacity="1" stop-color="rgb(35.499573%, 68.121338%, 66.065979%)" offset="0.632812"/><stop stop-opacity="1" stop-color="rgb(35.719299%, 68.17627%, 66.043091%)" offset="0.636719"/><stop stop-opacity="1" stop-color="rgb(35.939026%, 68.232727%, 66.020203%)" offset="0.640625"/><stop stop-opacity="1" stop-color="rgb(36.157227%, 68.287659%, 65.995789%)" offset="0.644531"/><stop stop-opacity="1" stop-color="rgb(36.376953%, 68.34259%, 65.9729%)" offset="0.648438"/><stop stop-opacity="1" stop-color="rgb(36.595154%, 68.397522%, 65.950012%)" offset="0.652344"/><stop stop-opacity="1" stop-color="rgb(36.81488%, 68.452454%, 65.927124%)" offset="0.65625"/><stop stop-opacity="1" stop-color="rgb(37.033081%, 68.507385%, 65.904236%)" offset="0.660156"/><stop stop-opacity="1" stop-color="rgb(37.252808%, 68.562317%, 65.881348%)" offset="0.664062"/><stop stop-opacity="1" stop-color="rgb(37.471008%, 68.617249%, 65.858459%)" offset="0.667969"/><stop stop-opacity="1" stop-color="rgb(37.690735%, 68.67218%, 65.835571%)" offset="0.671875"/><stop stop-opacity="1" stop-color="rgb(37.910461%, 68.727112%, 65.812683%)" offset="0.675781"/><stop stop-opacity="1" stop-color="rgb(38.130188%, 68.783569%, 65.789795%)" offset="0.679687"/><stop stop-opacity="1" stop-color="rgb(38.348389%, 68.838501%, 65.765381%)" offset="0.683594"/><stop stop-opacity="1" stop-color="rgb(38.568115%, 68.893433%, 65.742493%)" offset="0.6875"/><stop stop-opacity="1" stop-color="rgb(38.786316%, 68.948364%, 65.719604%)" offset="0.691406"/><stop stop-opacity="1" stop-color="rgb(39.006042%, 69.003296%, 65.696716%)" offset="0.695312"/><stop stop-opacity="1" stop-color="rgb(39.224243%, 69.058228%, 65.673828%)" offset="0.699219"/><stop stop-opacity="1" stop-color="rgb(39.44397%, 69.113159%, 65.65094%)" offset="0.703125"/><stop stop-opacity="1" stop-color="rgb(39.663696%, 69.168091%, 65.628052%)" offset="0.707031"/><stop stop-opacity="1" stop-color="rgb(39.883423%, 69.223022%, 65.605164%)" offset="0.710937"/><stop stop-opacity="1" stop-color="rgb(40.101624%, 69.277954%, 65.58075%)" offset="0.714844"/><stop stop-opacity="1" stop-color="rgb(40.32135%, 69.332886%, 65.557861%)" offset="0.71875"/><stop stop-opacity="1" stop-color="rgb(40.539551%, 69.387817%, 65.534973%)" offset="0.722656"/><stop stop-opacity="1" stop-color="rgb(40.759277%, 69.444275%, 65.512085%)" offset="0.726562"/><stop stop-opacity="1" stop-color="rgb(40.977478%, 69.499207%, 65.489197%)" offset="0.730469"/><stop stop-opacity="1" stop-color="rgb(41.197205%, 69.554138%, 65.466309%)" offset="0.734375"/><stop stop-opacity="1" stop-color="rgb(41.416931%, 69.60907%, 65.44342%)" offset="0.738281"/><stop stop-opacity="1" stop-color="rgb(41.636658%, 69.664001%, 65.420532%)" offset="0.742188"/><stop stop-opacity="1" stop-color="rgb(41.854858%, 69.718933%, 65.397644%)" offset="0.746094"/><stop stop-opacity="1" stop-color="rgb(42.074585%, 69.773865%, 65.374756%)" offset="0.75"/><stop stop-opacity="1" stop-color="rgb(42.292786%, 69.828796%, 65.350342%)" offset="0.753906"/><stop stop-opacity="1" stop-color="rgb(42.512512%, 69.883728%, 65.327454%)" offset="0.757812"/><stop stop-opacity="1" stop-color="rgb(42.730713%, 69.93866%, 65.304565%)" offset="0.761719"/><stop stop-opacity="1" stop-color="rgb(42.950439%, 69.995117%, 65.281677%)" offset="0.765625"/><stop stop-opacity="1" stop-color="rgb(43.16864%, 70.050049%, 65.258789%)" offset="0.769531"/><stop stop-opacity="1" stop-color="rgb(43.388367%, 70.10498%, 65.235901%)" offset="0.773438"/><stop stop-opacity="1" stop-color="rgb(43.608093%, 70.159912%, 65.213013%)" offset="0.777344"/><stop stop-opacity="1" stop-color="rgb(43.82782%, 70.214844%, 65.190125%)" offset="0.78125"/><stop stop-opacity="1" stop-color="rgb(44.046021%, 70.269775%, 65.167236%)" offset="0.785156"/><stop stop-opacity="1" stop-color="rgb(44.265747%, 70.324707%, 65.144348%)" offset="0.789062"/><stop stop-opacity="1" stop-color="rgb(44.483948%, 70.379639%, 65.119934%)" offset="0.792969"/><stop stop-opacity="1" stop-color="rgb(44.703674%, 70.43457%, 65.097046%)" offset="0.796875"/><stop stop-opacity="1" stop-color="rgb(44.921875%, 70.489502%, 65.074158%)" offset="0.800781"/><stop stop-opacity="1" stop-color="rgb(45.141602%, 70.545959%, 65.05127%)" offset="0.804687"/><stop stop-opacity="1" stop-color="rgb(45.361328%, 70.600891%, 65.028381%)" offset="0.808594"/><stop stop-opacity="1" stop-color="rgb(45.581055%, 70.655823%, 65.005493%)" offset="0.8125"/><stop stop-opacity="1" stop-color="rgb(45.799255%, 70.710754%, 64.982605%)" offset="0.816406"/><stop stop-opacity="1" stop-color="rgb(46.018982%, 70.765686%, 64.959717%)" offset="0.820312"/><stop stop-opacity="1" stop-color="rgb(46.237183%, 70.820618%, 64.936829%)" offset="0.824219"/><stop stop-opacity="1" stop-color="rgb(46.456909%, 70.875549%, 64.91394%)" offset="0.828125"/><stop stop-opacity="1" stop-color="rgb(46.67511%, 70.930481%, 64.889526%)" offset="0.832031"/><stop stop-opacity="1" stop-color="rgb(46.894836%, 70.985413%, 64.866638%)" offset="0.835938"/><stop stop-opacity="1" stop-color="rgb(47.114563%, 71.040344%, 64.84375%)" offset="0.839844"/><stop stop-opacity="1" stop-color="rgb(47.33429%, 71.096802%, 64.820862%)" offset="0.84375"/><stop stop-opacity="1" stop-color="rgb(47.55249%, 71.151733%, 64.797974%)" offset="0.847656"/><stop stop-opacity="1" stop-color="rgb(47.772217%, 71.206665%, 64.775085%)" offset="0.851562"/><stop stop-opacity="1" stop-color="rgb(47.990417%, 71.261597%, 64.752197%)" offset="0.855469"/><stop stop-opacity="1" stop-color="rgb(48.210144%, 71.316528%, 64.729309%)" offset="0.859375"/><stop stop-opacity="1" stop-color="rgb(48.428345%, 71.37146%, 64.706421%)" offset="0.863281"/><stop stop-opacity="1" stop-color="rgb(48.648071%, 71.426392%, 64.683533%)" offset="0.867188"/><stop stop-opacity="1" stop-color="rgb(48.866272%, 71.481323%, 64.659119%)" offset="0.871094"/><stop stop-opacity="1" stop-color="rgb(49.085999%, 71.536255%, 64.63623%)" offset="0.875"/><stop stop-opacity="1" stop-color="rgb(49.305725%, 71.591187%, 64.613342%)" offset="0.878906"/><stop stop-opacity="1" stop-color="rgb(49.525452%, 71.647644%, 64.590454%)" offset="0.882812"/><stop stop-opacity="1" stop-color="rgb(49.743652%, 71.702576%, 64.567566%)" offset="0.886719"/><stop stop-opacity="1" stop-color="rgb(49.963379%, 71.757507%, 64.544678%)" offset="0.890625"/><stop stop-opacity="1" stop-color="rgb(50.18158%, 71.812439%, 64.52179%)" offset="0.894531"/><stop stop-opacity="1" stop-color="rgb(50.401306%, 71.867371%, 64.498901%)" offset="0.898438"/><stop stop-opacity="1" stop-color="rgb(50.619507%, 71.922302%, 64.474487%)" offset="0.902344"/><stop stop-opacity="1" stop-color="rgb(50.839233%, 71.977234%, 64.451599%)" offset="0.90625"/><stop stop-opacity="1" stop-color="rgb(51.05896%, 72.032166%, 64.428711%)" offset="0.910156"/><stop stop-opacity="1" stop-color="rgb(51.278687%, 72.087097%, 64.405823%)" offset="0.914062"/><stop stop-opacity="1" stop-color="rgb(51.496887%, 72.142029%, 64.382935%)" offset="0.917969"/><stop stop-opacity="1" stop-color="rgb(51.716614%, 72.19696%, 64.360046%)" offset="0.921875"/><stop stop-opacity="1" stop-color="rgb(51.934814%, 72.251892%, 64.337158%)" offset="0.925781"/><stop stop-opacity="1" stop-color="rgb(52.154541%, 72.30835%, 64.31427%)" offset="0.929687"/><stop stop-opacity="1" stop-color="rgb(52.372742%, 72.363281%, 64.291382%)" offset="0.933594"/><stop stop-opacity="1" stop-color="rgb(52.592468%, 72.418213%, 64.268494%)" offset="0.9375"/><stop stop-opacity="1" stop-color="rgb(52.812195%, 72.473145%, 64.24408%)" offset="0.941406"/><stop stop-opacity="1" stop-color="rgb(53.031921%, 72.528076%, 64.221191%)" offset="0.945313"/><stop stop-opacity="1" stop-color="rgb(53.250122%, 72.583008%, 64.198303%)" offset="0.949219"/><stop stop-opacity="1" stop-color="rgb(53.469849%, 72.637939%, 64.175415%)" offset="0.953125"/><stop stop-opacity="1" stop-color="rgb(53.688049%, 72.692871%, 64.152527%)" offset="0.957031"/><stop stop-opacity="1" stop-color="rgb(53.907776%, 72.747803%, 64.129639%)" offset="0.960938"/><stop stop-opacity="1" stop-color="rgb(54.125977%, 72.802734%, 64.10675%)" offset="0.964844"/><stop stop-opacity="1" stop-color="rgb(54.345703%, 72.859192%, 64.083862%)" offset="0.96875"/><stop stop-opacity="1" stop-color="rgb(54.56543%, 72.914124%, 64.060974%)" offset="0.972656"/><stop stop-opacity="1" stop-color="rgb(54.785156%, 72.969055%, 64.038086%)" offset="0.976562"/><stop stop-opacity="1" stop-color="rgb(55.003357%, 73.023987%, 64.013672%)" offset="0.980469"/><stop stop-opacity="1" stop-color="rgb(55.223083%, 73.078918%, 63.990784%)" offset="0.984375"/><stop stop-opacity="1" stop-color="rgb(55.441284%, 73.13385%, 63.967896%)" offset="0.988281"/><stop stop-opacity="1" stop-color="rgb(55.661011%, 73.188782%, 63.945007%)" offset="0.992188"/><stop stop-opacity="1" stop-color="rgb(55.879211%, 73.243713%, 63.922119%)" offset="0.996094"/><stop stop-opacity="1" stop-color="rgb(56.098938%, 73.298645%, 63.899231%)" offset="1"/></linearGradient></defs><rect x="-37.5" width="450" fill="#ffffff" y="-37.499999" height="449.999989" fill-opacity="1"/><rect x="-37.5" width="450" fill="#ffffff" y="-37.499999" height="449.999989" fill-opacity="1"/><g clip-path="url(#79a705f50b)"><g clip-path="url(#0fcaf90855)"><path fill="url(#00f60faff8)" d="M 11.980469 13.660156 L 11.980469 361.332031 L 362.804688 361.332031 L 362.804688 13.660156 Z M 11.980469 13.660156 " fill-rule="nonzero"/></g></g><g fill="#000000" fill-opacity="1"><g transform="translate(186.082876, 338.399984)"><g><path d="M 0.390625 0.015625 C 0.328125 0.015625 0.269531 0 0.21875 -0.03125 C 0.175781 -0.0625 0.140625 -0.101562 0.109375 -0.15625 C 0.0859375 -0.207031 0.078125 -0.273438 0.078125 -0.359375 C 0.078125 -0.429688 0.0859375 -0.492188 0.109375 -0.546875 C 0.140625 -0.609375 0.175781 -0.648438 0.21875 -0.671875 C 0.269531 -0.703125 0.328125 -0.71875 0.390625 -0.71875 C 0.460938 -0.71875 0.519531 -0.707031 0.5625 -0.6875 C 0.601562 -0.664062 0.632812 -0.628906 0.65625 -0.578125 L 0.609375 -0.53125 L 0.59375 -0.53125 C 0.570312 -0.570312 0.546875 -0.601562 0.515625 -0.625 C 0.484375 -0.644531 0.441406 -0.65625 0.390625 -0.65625 C 0.347656 -0.65625 0.304688 -0.644531 0.265625 -0.625 C 0.234375 -0.601562 0.207031 -0.566406 0.1875 -0.515625 C 0.164062 -0.472656 0.15625 -0.421875 0.15625 -0.359375 C 0.15625 -0.285156 0.164062 -0.226562 0.1875 -0.1875 C 0.207031 -0.144531 0.234375 -0.113281 0.265625 -0.09375 C 0.304688 -0.0703125 0.347656 -0.0625 0.390625 -0.0625 C 0.441406 -0.0625 0.484375 -0.0703125 0.515625 -0.09375 C 0.554688 -0.125 0.582031 -0.164062 0.59375 -0.21875 L 0.609375 -0.21875 L 0.65625 -0.1875 C 0.644531 -0.125 0.613281 -0.0703125 0.5625 -0.03125 C 0.519531 0 0.460938 0.015625 0.390625 0.015625 Z M 0.390625 0.015625 "/></g></g><g transform="translate(186.783069, 338.399984)"><g><path d="M 0.1875 0 L 0.109375 0 L 0.109375 -0.71875 L 0.1875 -0.71875 Z M 0.1875 0 "/></g></g><g transform="translate(187.083362, 338.399984)"><g><path d="M 0.09375 0.109375 L 0.015625 0.109375 L 0.28125 -0.75 L 0.359375 -0.75 Z M 0.09375 0.109375 "/></g></g></g><g fill="#000000" fill-opacity="1"><g transform="translate(187.455431, 338.399984)"><g><path d="M 0.390625 0.015625 C 0.328125 0.015625 0.269531 0 0.21875 -0.03125 C 0.175781 -0.0625 0.140625 -0.101562 0.109375 -0.15625 C 0.0859375 -0.207031 0.078125 -0.273438 0.078125 -0.359375 C 0.078125 -0.429688 0.0859375 -0.492188 0.109375 -0.546875 C 0.140625 -0.609375 0.175781 -0.648438 0.21875 -0.671875 C 0.269531 -0.703125 0.328125 -0.71875 0.390625 -0.71875 C 0.460938 -0.71875 0.519531 -0.707031 0.5625 -0.6875 C 0.601562 -0.664062 0.632812 -0.628906 0.65625 -0.578125 L 0.609375 -0.53125 L 0.59375 -0.53125 C 0.570312 -0.570312 0.546875 -0.601562 0.515625 -0.625 C 0.484375 -0.644531 0.441406 -0.65625 0.390625 -0.65625 C 0.347656 -0.65625 0.304688 -0.644531 0.265625 -0.625 C 0.234375 -0.601562 0.207031 -0.566406 0.1875 -0.515625 C 0.164062 -0.472656 0.15625 -0.421875 0.15625 -0.359375 C 0.15625 -0.285156 0.164062 -0.226562 0.1875 -0.1875 C 0.207031 -0.144531 0.234375 -0.113281 0.265625 -0.09375 C 0.304688 -0.0703125 0.347656 -0.0625 0.390625 -0.0625 C 0.441406 -0.0625 0.484375 -0.0703125 0.515625 -0.09375 C 0.554688 -0.125 0.582031 -0.164062 0.59375 -0.21875 L 0.609375 -0.21875 L 0.65625 -0.1875 C 0.644531 -0.125 0.613281 -0.0703125 0.5625 -0.03125 C 0.519531 0 0.460938 0.015625 0.390625 0.015625 Z M 0.390625 0.015625 "/></g></g><g transform="translate(188.155624, 338.399984)"><g><path d="M 0.34375 -0.71875 C 0.414062 -0.71875 0.476562 -0.703125 0.53125 -0.671875 C 0.582031 -0.648438 0.617188 -0.613281 0.640625 -0.5625 C 0.671875 -0.507812 0.6875 -0.441406 0.6875 -0.359375 C 0.6875 -0.273438 0.671875 -0.207031 0.640625 -0.15625 C 0.617188 -0.101562 0.582031 -0.0625 0.53125 -0.03125 C 0.476562 -0.0078125 0.414062 0 0.34375 0 L 0.109375 0 L 0.109375 -0.71875 Z M 0.328125 -0.078125 C 0.390625 -0.078125 0.4375 -0.0820312 0.46875 -0.09375 C 0.507812 -0.113281 0.539062 -0.144531 0.5625 -0.1875 C 0.582031 -0.226562 0.59375 -0.285156 0.59375 -0.359375 C 0.59375 -0.429688 0.582031 -0.488281 0.5625 -0.53125 C 0.539062 -0.570312 0.507812 -0.597656 0.46875 -0.609375 C 0.4375 -0.628906 0.390625 -0.640625 0.328125 -0.640625 L 0.1875 -0.640625 L 0.1875 -0.078125 Z M 0.328125 -0.078125 "/></g></g></g></svg>