<svg xmlns="http://www.w3.org/2000/svg" xmlns:xlink="http://www.w3.org/1999/xlink" width="500" zoomAndPan="magnify" viewBox="0 0 375 374.999991" height="500" preserveAspectRatio="xMidYMid meet" version="1.0"><defs><g/><clipPath id="b660bbe1c3"><path d="M 20 51 L 351 51 L 351 337.5 L 20 337.5 Z M 20 51 " clip-rule="nonzero"/></clipPath></defs><rect x="-37.5" width="450" fill="#ffffff" y="-37.499999" height="449.999989" fill-opacity="1"/><rect x="-37.5" width="450" fill="#ffffff" y="-37.499999" height="449.999989" fill-opacity="1"/><g clip-path="url(#b660bbe1c3)"><path fill="#1a3d6d" d="M 235.390625 274.480469 C 240.578125 274.5625 250.335938 274.5625 252.722656 273.429688 L 301.320312 250.714844 C 303.042969 248.707031 303.691406 247.046875 303.550781 245.789062 C 303.328125 243.902344 300.898438 242.753906 299.011719 242.265625 C 294.332031 241.050781 287.589844 241.960938 280.933594 246.121094 Z M 92.007812 255.433594 L 64.511719 255.234375 C 63.296875 255.210938 62.226562 256.003906 62.203125 257.242188 L 60.890625 334.84375 C 60.890625 336.019531 61.859375 337.253906 63.019531 337.277344 L 90.535156 337.476562 C 91.75 337.496094 92.820312 336.703125 92.84375 335.46875 L 94.15625 257.863281 C 94.148438 256.710938 93.257812 255.476562 92.007812 255.433594 Z M 102.535156 266.804688 C 102.148438 288.285156 101.808594 309.757812 101.464844 331.257812 C 123.816406 331.277344 215.734375 332.957031 221.441406 331.90625 C 237.433594 327.269531 282.734375 296.167969 311.894531 276.167969 C 319.101562 271.222656 325.316406 266.925781 329.957031 263.867188 C 335.652344 260.078125 338.160156 255.960938 332.144531 253.253906 C 327.671875 251.207031 320.566406 251.144531 313.128906 254.632812 L 256.351562 281.171875 C 246.816406 285.632812 198.601562 280.972656 186.894531 279.773438 C 173.144531 278.355469 160.976562 276.390625 154.5 274.480469 C 152.578125 274.945312 150.527344 274.015625 149.660156 272.152344 C 147.554688 267.675781 154.175781 262.34375 162.300781 257.261719 C 169.285156 252.886719 178.699219 247.675781 188.964844 242.265625 C 189.085938 242.203125 189.207031 242.144531 189.332031 242.082031 C 197.839844 238.214844 202.109375 232.273438 202.632812 226.882812 C 203.015625 223.074219 201.539062 219.671875 198.238281 217.605469 C 193.417969 214.570312 184.972656 214.40625 173.273438 219.992188 C 159.761719 226.433594 149.71875 237.199219 138.746094 240.480469 C 126.558594 244.125 117.222656 253.894531 106.816406 263.074219 C 105.308594 264.390625 103.886719 265.648438 102.535156 266.804688 Z M 30.527344 95.816406 C 27.671875 94.234375 27.59375 90.0625 30.484375 88.402344 L 38.628906 83.699219 C 41.566406 81.996094 45.1875 84.261719 45.007812 87.609375 L 44.523438 96.621094 C 44.359375 99.925781 40.671875 101.726562 37.980469 100.003906 C 16.613281 140.125 35.144531 190.496094 78.054688 206.84375 C 80.261719 207.691406 81.375 210.164062 80.527344 212.375 C 79.699219 214.582031 77.203125 215.699219 74.996094 214.847656 C 33.121094 198.878906 10.761719 152.726562 24.613281 109.753906 C 26.171875 104.890625 28.15625 100.253906 30.527344 95.816406 Z M 285.304688 52.335938 C 288.527344 51.460938 291.417969 54.480469 290.527344 57.644531 C 339.125 72.355469 364.011719 126.636719 343.175781 173.253906 C 342.203125 175.421875 339.6875 176.378906 337.523438 175.421875 C 335.382812 174.449219 334.402344 171.933594 335.382812 169.765625 C 354.132812 127.785156 331.617188 79.097656 288.199219 65.863281 C 287.492188 69.003906 283.617188 70.304688 281.191406 68.117188 L 274.710938 62.296875 C 271.710938 59.804688 273.054688 55.613281 276.230469 54.765625 Z M 331.109375 198.035156 C 330.28125 201.136719 326.472656 202.210938 324.121094 200.125 C 286.660156 235.640625 226.398438 229.566406 196.675781 187.257812 C 195.316406 185.3125 195.78125 182.640625 197.710938 181.28125 C 199.652344 179.921875 202.308594 180.386719 203.683594 182.316406 C 230.207031 220.109375 284.03125 225.839844 317.808594 194.3125 C 315.457031 192.101562 316.273438 188.128906 319.40625 187.101562 L 327.832031 184.339844 C 331.230469 183.167969 334.289062 186.242188 333.417969 189.488281 Z M 259.222656 54.257812 C 261.59375 54.070312 263.636719 55.835938 263.839844 58.1875 C 264.023438 60.5625 262.257812 62.605469 259.886719 62.804688 C 221.355469 65.84375 191.464844 97.207031 189.824219 136.113281 L 189.824219 136.136719 C 189.722656 159.351562 180.222656 180.410156 164.914062 195.664062 C 150.089844 210.429688 129.839844 219.75 107.421875 220.359375 C 107.238281 223.496094 103.800781 225.40625 101.023438 223.824219 L 93.371094 219.40625 C 90.390625 217.707031 90.578125 213.390625 93.570312 211.886719 L 101.59375 207.792969 C 104.507812 206.3125 107.90625 208.542969 107.785156 211.765625 C 127.730469 211.082031 145.710938 202.730469 158.878906 189.601562 C 172.664062 175.863281 181.214844 156.941406 181.292969 136.070312 C 181.273438 135.972656 181.273438 135.886719 181.292969 135.808594 C 182.824219 92.832031 216.375 57.667969 259.222656 54.257812 Z M 55.816406 77.800781 C 54.039062 79.339844 51.324219 79.136719 49.78125 77.335938 C 48.257812 75.558594 48.464844 72.839844 50.265625 71.320312 C 89.757812 37.546875 150.253906 47.1875 177.414062 91.71875 C 180.273438 90.238281 183.730469 92.347656 183.652344 95.605469 L 183.453125 104.199219 C 183.371094 107.566406 179.601562 109.488281 176.851562 107.6875 L 169.300781 102.761719 C 166.550781 100.960938 166.792969 96.886719 169.644531 95.386719 C 144.898438 55.878906 90.992188 47.796875 55.816406 77.800781 Z M 278.140625 118.324219 C 268.886719 109.066406 252.988281 115.671875 252.988281 128.757812 C 252.988281 141.847656 268.882812 148.429688 278.140625 139.171875 C 283.890625 133.417969 283.890625 124.078125 278.140625 118.324219 Z M 110.574219 84.855469 L 102.757812 84.855469 L 102.757812 91.019531 C 102.855469 93.128906 101.398438 95.050781 99.269531 95.457031 C 94.492188 96.351562 88.640625 98.59375 84.734375 101.410156 C 83.054688 102.726562 80.625 102.605469 79.082031 101.046875 L 74.570312 96.53125 L 69.0625 102.0625 L 73.554688 106.578125 C 74.992188 108.015625 75.253906 110.289062 74.0625 112.03125 C 71.367188 115.984375 68.753906 121.777344 68.003906 126.5 C 67.761719 128.628906 65.9375 130.265625 63.753906 130.265625 L 57.375 130.265625 L 57.375 138.085938 L 63.753906 138.085938 C 65.773438 138.085938 67.582031 139.523438 67.96875 141.589844 C 68.859375 146.371094 71.105469 152.226562 73.917969 156.113281 C 75.234375 157.792969 75.113281 160.222656 73.554688 161.769531 L 69.0625 166.285156 L 74.570312 171.816406 L 79.082031 167.300781 C 80.519531 165.886719 82.8125 165.621094 84.535156 166.792969 C 88.507812 169.488281 94.257812 172.105469 98.992188 172.855469 C 101.121094 173.097656 102.757812 174.917969 102.757812 177.105469 L 102.757812 183.488281 L 110.574219 183.488281 L 110.574219 177.105469 L 110.59375 177.105469 C 110.574219 175.085938 112.007812 173.296875 114.078125 172.910156 C 118.859375 171.996094 124.710938 169.75 128.597656 166.9375 C 130.273438 165.640625 132.703125 165.761719 134.246094 167.300781 L 138.761719 171.816406 L 144.289062 166.285156 L 139.777344 161.769531 C 138.359375 160.332031 138.097656 158.058594 139.269531 156.3125 C 141.960938 152.359375 144.574219 146.585938 145.324219 141.847656 C 145.589844 139.714844 147.390625 138.078125 149.578125 138.078125 L 155.957031 138.078125 L 155.957031 130.261719 L 149.578125 130.261719 C 147.570312 130.261719 145.769531 128.824219 145.382812 126.757812 C 144.46875 121.996094 142.226562 116.144531 139.410156 112.234375 C 138.117188 110.554688 138.238281 108.125 139.777344 106.578125 L 144.289062 102.0625 L 138.761719 96.53125 L 134.246094 101.046875 C 132.832031 102.484375 130.539062 102.726562 128.796875 101.554688 C 124.84375 98.859375 119.074219 96.242188 114.335938 95.492188 C 112.207031 95.25 110.574219 93.425781 110.574219 91.238281 Z M 106.664062 101.289062 C 124.808594 101.289062 139.53125 116.023438 139.53125 134.175781 C 139.53125 152.332031 124.808594 167.0625 106.664062 167.0625 C 88.519531 167.0625 73.796875 152.332031 73.796875 134.175781 C 73.796875 116.023438 88.519531 101.289062 106.664062 101.289062 Z M 106.664062 101.289062 " fill-opacity="1" fill-rule="nonzero"/></g><path fill="#01a6d0" d="M 124.339844 151.859375 C 114.578125 161.644531 98.742188 161.644531 88.984375 151.859375 C 79.226562 142.097656 79.226562 126.25 88.984375 116.484375 C 98.742188 106.722656 114.578125 106.722656 124.339844 116.484375 C 134.125 126.25 134.125 142.097656 124.339844 151.859375 Z M 231.707031 128.757812 C 231.707031 119.152344 235.472656 110.039062 242.257812 103.269531 C 256.308594 89.1875 279.132812 89.1875 293.207031 103.269531 C 299.96875 110.039062 303.757812 119.152344 303.757812 128.757812 C 303.757812 148.550781 280.445312 183.382812 268.28125 198.886719 L 267.730469 199.59375 L 267.167969 198.886719 C 254.996094 183.390625 231.707031 148.558594 231.707031 128.757812 Z M 104.113281 145.132812 L 121.464844 127.773438 C 122.867188 126.371094 122.867188 124.105469 121.464844 122.726562 C 120.066406 121.324219 117.800781 121.324219 116.421875 122.726562 L 101.480469 137.65625 L 97.25 131.960938 C 96.078125 130.382812 93.847656 130.058594 92.269531 131.230469 C 90.714844 132.390625 90.371094 134.632812 91.542969 136.191406 L 98.242188 145.207031 C 99.519531 146.949219 102.09375 147.128906 103.609375 145.613281 L 104.113281 145.105469 Z M 290.304688 128.757812 C 290.304688 116.277344 280.203125 106.148438 267.722656 106.148438 C 255.246094 106.148438 245.128906 116.277344 245.128906 128.757812 C 245.128906 141.21875 255.25 151.351562 267.722656 151.351562 C 280.195312 151.351562 290.304688 141.226562 290.304688 128.757812 Z M 290.304688 128.757812 " fill-opacity="1" fill-rule="evenodd"/><g fill="#000000" fill-opacity="1"><g transform="translate(186.082876, 338.399984)"><g><path d="M 0.390625 0.015625 C 0.328125 0.015625 0.269531 0 0.21875 -0.03125 C 0.175781 -0.0625 0.140625 -0.101562 0.109375 -0.15625 C 0.0859375 -0.207031 0.078125 -0.273438 0.078125 -0.359375 C 0.078125 -0.429688 0.0859375 -0.492188 0.109375 -0.546875 C 0.140625 -0.609375 0.175781 -0.648438 0.21875 -0.671875 C 0.269531 -0.703125 0.328125 -0.71875 0.390625 -0.71875 C 0.460938 -0.71875 0.519531 -0.707031 0.5625 -0.6875 C 0.601562 -0.664062 0.632812 -0.628906 0.65625 -0.578125 L 0.609375 -0.53125 L 0.59375 -0.53125 C 0.570312 -0.570312 0.546875 -0.601562 0.515625 -0.625 C 0.484375 -0.644531 0.441406 -0.65625 0.390625 -0.65625 C 0.347656 -0.65625 0.304688 -0.644531 0.265625 -0.625 C 0.234375 -0.601562 0.207031 -0.566406 0.1875 -0.515625 C 0.164062 -0.472656 0.15625 -0.421875 0.15625 -0.359375 C 0.15625 -0.285156 0.164062 -0.226562 0.1875 -0.1875 C 0.207031 -0.144531 0.234375 -0.113281 0.265625 -0.09375 C 0.304688 -0.0703125 0.347656 -0.0625 0.390625 -0.0625 C 0.441406 -0.0625 0.484375 -0.0703125 0.515625 -0.09375 C 0.554688 -0.125 0.582031 -0.164062 0.59375 -0.21875 L 0.609375 -0.21875 L 0.65625 -0.1875 C 0.644531 -0.125 0.613281 -0.0703125 0.5625 -0.03125 C 0.519531 0 0.460938 0.015625 0.390625 0.015625 Z M 0.390625 0.015625 "/></g></g><g transform="translate(186.783069, 338.399984)"><g><path d="M 0.1875 0 L 0.109375 0 L 0.109375 -0.71875 L 0.1875 -0.71875 Z M 0.1875 0 "/></g></g><g transform="translate(187.083362, 338.399984)"><g><path d="M 0.09375 0.109375 L 0.015625 0.109375 L 0.28125 -0.75 L 0.359375 -0.75 Z M 0.09375 0.109375 "/></g></g></g><g fill="#000000" fill-opacity="1"><g transform="translate(187.455431, 338.399984)"><g><path d="M 0.390625 0.015625 C 0.328125 0.015625 0.269531 0 0.21875 -0.03125 C 0.175781 -0.0625 0.140625 -0.101562 0.109375 -0.15625 C 0.0859375 -0.207031 0.078125 -0.273438 0.078125 -0.359375 C 0.078125 -0.429688 0.0859375 -0.492188 0.109375 -0.546875 C 0.140625 -0.609375 0.175781 -0.648438 0.21875 -0.671875 C 0.269531 -0.703125 0.328125 -0.71875 0.390625 -0.71875 C 0.460938 -0.71875 0.519531 -0.707031 0.5625 -0.6875 C 0.601562 -0.664062 0.632812 -0.628906 0.65625 -0.578125 L 0.609375 -0.53125 L 0.59375 -0.53125 C 0.570312 -0.570312 0.546875 -0.601562 0.515625 -0.625 C 0.484375 -0.644531 0.441406 -0.65625 0.390625 -0.65625 C 0.347656 -0.65625 0.304688 -0.644531 0.265625 -0.625 C 0.234375 -0.601562 0.207031 -0.566406 0.1875 -0.515625 C 0.164062 -0.472656 0.15625 -0.421875 0.15625 -0.359375 C 0.15625 -0.285156 0.164062 -0.226562 0.1875 -0.1875 C 0.207031 -0.144531 0.234375 -0.113281 0.265625 -0.09375 C 0.304688 -0.0703125 0.347656 -0.0625 0.390625 -0.0625 C 0.441406 -0.0625 0.484375 -0.0703125 0.515625 -0.09375 C 0.554688 -0.125 0.582031 -0.164062 0.59375 -0.21875 L 0.609375 -0.21875 L 0.65625 -0.1875 C 0.644531 -0.125 0.613281 -0.0703125 0.5625 -0.03125 C 0.519531 0 0.460938 0.015625 0.390625 0.015625 Z M 0.390625 0.015625 "/></g></g><g transform="translate(188.155624, 338.399984)"><g><path d="M 0.34375 -0.71875 C 0.414062 -0.71875 0.476562 -0.703125 0.53125 -0.671875 C 0.582031 -0.648438 0.617188 -0.613281 0.640625 -0.5625 C 0.671875 -0.507812 0.6875 -0.441406 0.6875 -0.359375 C 0.6875 -0.273438 0.671875 -0.207031 0.640625 -0.15625 C 0.617188 -0.101562 0.582031 -0.0625 0.53125 -0.03125 C 0.476562 -0.0078125 0.414062 0 0.34375 0 L 0.109375 0 L 0.109375 -0.71875 Z M 0.328125 -0.078125 C 0.390625 -0.078125 0.4375 -0.0820312 0.46875 -0.09375 C 0.507812 -0.113281 0.539062 -0.144531 0.5625 -0.1875 C 0.582031 -0.226562 0.59375 -0.285156 0.59375 -0.359375 C 0.59375 -0.429688 0.582031 -0.488281 0.5625 -0.53125 C 0.539062 -0.570312 0.507812 -0.597656 0.46875 -0.609375 C 0.4375 -0.628906 0.390625 -0.640625 0.328125 -0.640625 L 0.1875 -0.640625 L 0.1875 -0.078125 Z M 0.328125 -0.078125 "/></g></g></g></svg>